<svg width="148" height="147" viewBox="0 0 148 147" fill="none" xmlns="http://www.w3.org/2000/svg">
<ellipse cx="74" cy="73.5" rx="50" ry="51.5" fill="#CC68B2"/>
<path d="M63.4141 92.3906C59.8724 92.3906 57.0078 91.5182 54.8203 89.7734C52.6328 88.0286 51.5391 85.4375 51.5391 82C51.5391 78.3802 52.6458 75.6589 54.8594 73.8359C57.0729 71.987 59.7682 70.8021 62.9453 70.2812C66.1484 69.7344 70.0286 69.4219 74.5859 69.3438V66.0625C74.5859 64.3177 73.987 62.9245 72.7891 61.8828C71.6172 60.8151 69.6771 60.2812 66.9688 60.2812C64.9115 60.2812 63.1016 60.5286 61.5391 61.0234C60.0026 61.4922 58.5573 62.0651 57.2031 62.7422C56.6302 63.0286 56.2786 63.1719 56.1484 63.1719C55.8359 63.1719 55.4844 62.9505 55.0938 62.5078C54.7292 62.0391 54.4036 61.5182 54.1172 60.9453C53.8568 60.3724 53.7266 59.9557 53.7266 59.6953C53.7266 59.0964 54.3385 58.4453 55.5625 57.7422C56.8125 57.0391 58.4401 56.4531 60.4453 55.9844C62.4505 55.5156 64.5469 55.2812 66.7344 55.2812C71.0833 55.2812 74.4557 56.2318 76.8516 58.1328C79.2474 60.0339 80.4453 62.7031 80.4453 66.1406V81.7266C80.4453 84.7474 80.5755 86.9349 80.8359 88.2891C81.1224 89.6172 81.2656 90.3464 81.2656 90.4766C81.2656 91.0495 80.8229 91.4661 79.9375 91.7266C79.0781 91.9609 78.2708 92.0781 77.5156 92.0781C76.8906 92.0781 76.4219 91.7266 76.1094 91.0234C75.8229 90.3203 75.5365 89.3047 75.25 87.9766L75.0938 87.1953C73.6615 88.7839 71.9688 90.0469 70.0156 90.9844C68.0885 91.9219 65.888 92.3906 63.4141 92.3906ZM63.7266 87.3516C66.0182 87.3516 67.9714 86.9349 69.5859 86.1016C71.2005 85.2682 72.8672 84.0833 74.5859 82.5469V74.3438C71.1484 74.3698 68.3229 74.513 66.1094 74.7734C63.8958 75.0339 61.9557 75.6979 60.2891 76.7656C58.6224 77.8073 57.7891 79.4349 57.7891 81.6484C57.7891 83.4974 58.2839 84.9167 59.2734 85.9062C60.2891 86.8698 61.7734 87.3516 63.7266 87.3516ZM92.3594 92.1172C91.3958 92.1172 90.6927 92 90.25 91.7656C89.8073 91.5052 89.5859 91.1146 89.5859 90.5938V86.0234C89.5859 85.0078 90.5104 84.5 92.3594 84.5H93.5312C95.3802 84.5 96.3047 85.0078 96.3047 86.0234V90.5938C96.3047 91.1146 96.0833 91.5052 95.6406 91.7656C95.1979 92 94.4948 92.1172 93.5312 92.1172H92.3594Z" fill="white"/>
</svg>
