<svg width="25" height="25" viewBox="0 0 25 25" fill="none" xmlns="http://www.w3.org/2000/svg">
<path d="M22.1494 10.0557C22.1494 10.354 22.0309 10.6402 21.8199 10.8512C21.6089 11.0621 21.3228 11.1807 21.0244 11.1807C20.726 11.1807 20.4399 11.0621 20.2289 10.8512C20.0179 10.6402 19.8994 10.354 19.8994 10.0557V6.77441L14.3204 12.3535C14.109 12.5648 13.8224 12.6836 13.5235 12.6836C13.2246 12.6836 12.9379 12.5648 12.7266 12.3535C12.5153 12.1421 12.3965 11.8555 12.3965 11.5566C12.3965 11.2577 12.5153 10.9711 12.7266 10.7597L18.3057 5.18066H15.0244C14.726 5.18066 14.4399 5.06214 14.2289 4.85116C14.0179 4.64018 13.8994 4.35403 13.8994 4.05566C13.8994 3.7573 14.0179 3.47115 14.2289 3.26017C14.4399 3.04919 14.726 2.93066 15.0244 2.93066H21.0244C21.3228 2.93066 21.6089 3.04919 21.8199 3.26017C22.0309 3.47115 22.1494 3.7573 22.1494 4.05566V10.0557ZM18.0244 12.3057C17.726 12.3057 17.4399 12.4242 17.2289 12.6352C17.0179 12.8461 16.8994 13.1323 16.8994 13.4307V19.4307H5.64941V8.18066H11.6494C11.9478 8.18066 12.2339 8.06214 12.4449 7.85116C12.6559 7.64018 12.7744 7.35403 12.7744 7.05566C12.7744 6.7573 12.6559 6.47115 12.4449 6.26017C12.2339 6.04919 11.9478 5.93066 11.6494 5.93066H5.27441C4.77713 5.93066 4.30022 6.12821 3.94859 6.47984C3.59696 6.83147 3.39941 7.30838 3.39941 7.80566V19.8057C3.39941 20.3029 3.59696 20.7799 3.94859 21.1315C4.30022 21.4831 4.77713 21.6807 5.27441 21.6807H17.2744C17.7717 21.6807 18.2486 21.4831 18.6002 21.1315C18.9519 20.7799 19.1494 20.3029 19.1494 19.8057V13.4307C19.1494 13.1323 19.0309 12.8461 18.8199 12.6352C18.6089 12.4242 18.3228 12.3057 18.0244 12.3057Z" fill="#E73C9D"/>
</svg>
