<svg width="102" height="100" viewBox="0 0 102 100" fill="none" xmlns="http://www.w3.org/2000/svg">
<path d="M89.25 18.75H12.75C11.9046 18.75 11.0939 19.0792 10.4961 19.6653C9.89832 20.2513 9.5625 21.0462 9.5625 21.875V75C9.5625 76.6576 10.2341 78.2473 11.4297 79.4194C12.6252 80.5915 14.2467 81.25 15.9375 81.25H86.0625C87.7533 81.25 89.3748 80.5915 90.5703 79.4194C91.7658 78.2473 92.4375 76.6576 92.4375 75V21.875C92.4375 21.0462 92.1017 20.2513 91.5039 19.6653C90.9061 19.0792 90.0954 18.75 89.25 18.75ZM51 52.0117L20.9459 25H81.0541L51 52.0117ZM39.3298 50L15.9375 71.0195V28.9805L39.3298 50ZM44.0473 54.2383L48.8285 58.5547C49.4166 59.0839 50.1858 59.3776 50.9841 59.3776C51.7823 59.3776 52.5515 59.0839 53.1396 58.5547L57.9209 54.2383L81.0302 75H20.9459L44.0473 54.2383ZM62.6702 50L86.0625 28.9766V71.0234L62.6702 50Z" fill="white"/>
</svg>
