<?xml version="1.0" encoding="UTF-8"?>
<svg xmlns="http://www.w3.org/2000/svg" xmlns:xlink="http://www.w3.org/1999/xlink" width="140px" height="140px" viewBox="0 0 140 140" version="1.1">
<g id="surface1">
<path style=" stroke:none;fill-rule:evenodd;fill:rgb(0%,0%,0%);fill-opacity:1;" d="M 31.042969 51.914062 C 23.867188 60.34375 16.984375 70.792969 16.917969 78.605469 C 16.890625 81.546875 17.828125 84.113281 20.078125 86.054688 C 23.316406 88.855469 26.886719 89.839844 30.4375 89.847656 C 35.628906 89.855469 40.78125 87.761719 44.816406 86.144531 C 51.613281 83.429688 126.738281 50.804688 126.738281 50.804688 C 127.464844 50.441406 127.328125 49.988281 126.421875 50.214844 C 126.054688 50.304688 44.636719 72.371094 44.636719 72.371094 C 43.09375 72.808594 41.5 73.035156 39.898438 73.050781 C 33.640625 73.085938 28.074219 69.613281 28.117188 62.292969 C 28.136719 59.429688 29.011719 55.976562 31.042969 51.914062 Z M 31.042969 51.914062 "/>
</g>
</svg>
